<?xml version="1.0" encoding="utf-8"?><svg version="1.1" id="Layer_1" xmlns="http://www.w3.org/2000/svg" xmlns:xlink="http://www.w3.org/1999/xlink" x="0px" y="0px" viewBox="0 0 71.75 122.88" style="enable-background:new 0 0 71.75 122.88" xml:space="preserve"><g><path d="M12.89,0H58.9c1.73,0,3.4,0.35,4.91,0.98c1.58,0.65,3,1.61,4.18,2.79c1.18,1.18,2.14,2.6,2.79,4.18 c0.63,1.52,0.98,3.18,0.98,4.91v97.17c0,1.73-0.35,3.39-0.98,4.91c-0.65,1.58-1.61,3-2.79,4.18c-1.18,1.18-2.6,2.13-4.18,2.79 c-1.52,0.63-3.18,0.98-4.91,0.98H12.89c-1.73,0-3.39-0.35-4.91-0.98c-1.58-0.65-3-1.61-4.18-2.79l-0.03-0.03 c-1.17-1.18-2.11-2.59-2.76-4.15c-0.63-1.52-0.98-3.18-0.98-4.91V60.32C0.01,60.2,0,60.09,0,59.98c0-0.11,0.01-0.23,0.04-0.34 V12.86c0-1.73,0.35-3.39,0.98-4.91C1.67,6.37,2.62,4.95,3.8,3.77c1.18-1.18,2.6-2.14,4.18-2.79C9.5,0.35,11.16,0,12.89,0L12.89,0z M6.4,52.89c0.32-0.32,0.75-0.48,1.17-0.48c0.42,0,0.84,0.16,1.17,0.48c0.32,0.32,0.49,0.75,0.49,1.17s-0.16,0.84-0.48,1.17 c-6.03,6.03-6.13,3.37-0.16,9.33c0.32,0.33,0.49,0.75,0.49,1.17c0,0.42-0.16,0.85-0.48,1.17c-0.32,0.32-0.75,0.48-1.17,0.48 c-0.42,0-0.84-0.16-1.17-0.49l-2.25-2.25v33.83H67.8V64.49l-2.44,2.44c-0.32,0.3-0.73,0.45-1.14,0.45c-0.42,0-0.85-0.16-1.17-0.48 c-0.32-0.32-0.48-0.75-0.48-1.17c0-0.42,0.16-0.84,0.48-1.17l4.59-4.59l-4.78-4.78c-0.3-0.32-0.45-0.73-0.45-1.14 c0-0.42,0.16-0.85,0.48-1.17l0.03-0.03c0.32-0.3,0.73-0.45,1.14-0.45c0.42,0,0.85,0.16,1.17,0.48l2.57,2.57V20.04H3.99V55.3 L6.4,52.89L6.4,52.89z M28.81,89.31c-0.32-0.32-0.48-0.75-0.48-1.17c0-0.42,0.16-0.84,0.48-1.17c0.32-0.32,0.75-0.49,1.17-0.49 c0.42,0,0.84,0.16,1.17,0.48l4.75,4.75l4.62-4.62c0.32-0.3,0.73-0.45,1.14-0.45c0.42,0,0.84,0.16,1.17,0.48l0.03,0.03 c0.3,0.32,0.45,0.73,0.45,1.13c0,0.42-0.16,0.84-0.48,1.16l-5.76,5.76c-0.32,0.32-0.75,0.48-1.17,0.48c-0.42,0-0.84-0.16-1.17-0.48 L28.81,89.31L28.81,89.31z M31.12,32.85c-0.32,0.3-0.73,0.45-1.14,0.45c-0.42,0-0.84-0.16-1.17-0.48 c-0.32-0.33-0.49-0.75-0.49-1.17c0-0.42,0.16-0.85,0.48-1.17l5.95-5.95c0.32-0.3,0.73-0.45,1.13-0.45c0.42,0,0.85,0.16,1.17,0.48 l5.79,5.79c0.3,0.32,0.45,0.73,0.45,1.13c0,0.42-0.16,0.84-0.48,1.17l0,0c-0.32,0.32-0.75,0.48-1.17,0.48 c-0.42,0-0.84-0.16-1.17-0.48l-4.59-4.59L31.12,32.85L31.12,32.85z M20.44,62.13c0-0.34,0.14-0.64,0.36-0.86 c0.22-0.22,0.53-0.36,0.86-0.36c0.33,0,0.64,0.14,0.86,0.36l0,0c0.22,0.22,0.36,0.53,0.36,0.86l0,2.98l1.63,0.76 c0.29,0.14,0.49,0.39,0.6,0.67c0.1,0.28,0.1,0.6-0.02,0.89l-0.03,0.08c-0.14,0.29-0.39,0.49-0.67,0.6 c-0.29,0.11-0.63,0.1-0.93-0.04c-0.63-0.29-1.45-0.59-2.03-0.96c-0.18-0.12-0.34-0.26-0.48-0.42c-0.14-0.16-0.25-0.35-0.33-0.55 l-0.01-0.03c-0.06-0.15-0.1-0.31-0.13-0.46c-0.03-0.16-0.04-0.34-0.04-0.52L20.44,62.13L20.44,62.13z M35.02,80.29l-18.77-9.79 c-0.26-0.13-0.46-0.33-0.6-0.56c-0.13-0.22-0.21-0.46-0.22-0.71l-0.01-0.08V47.06c0-0.38,0.14-0.74,0.38-1.01 c0.23-0.26,0.55-0.45,0.9-0.51l18.6-6.2c0.16-0.05,0.33-0.08,0.49-0.08c0.16,0,0.31,0.02,0.45,0.07l18.94,6.48 c0.34,0.11,0.61,0.34,0.79,0.62c0.18,0.28,0.27,0.62,0.25,0.96c0.19,7.23,0,14.75,0,22.02l-0.01,0.08 c-0.01,0.26-0.09,0.51-0.23,0.73c-0.14,0.23-0.35,0.43-0.61,0.56l-18.76,9.53c-0.11,0.06-0.23,0.11-0.35,0.15 c-0.13,0.04-0.27,0.06-0.41,0.06c-0.15,0-0.29-0.02-0.43-0.06C35.27,80.42,35.14,80.36,35.02,80.29L35.02,80.29z M18.5,49.4v18.81 l15.8,8.24V56.57L18.5,49.4L18.5,49.4z M37.38,56.58v19.9l15.75-8V49.64L37.38,56.58L37.38,56.58z M35.77,42.43l-14.53,4.84 l14.61,6.63l14.6-6.43L35.77,42.43L35.77,42.43z M29.24,113.08c-0.54,0-1.05-0.22-1.41-0.59c-0.36-0.36-0.58-0.85-0.58-1.41 c0-0.54,0.22-1.05,0.59-1.41l0.03-0.03c0.36-0.34,0.84-0.56,1.37-0.56h13.6c0.54,0,1.05,0.22,1.41,0.59 c0.36,0.36,0.58,0.85,0.58,1.41c0,0.54-0.22,1.05-0.59,1.41c-0.36,0.36-0.85,0.58-1.41,0.58H29.24L29.24,113.08z M27.96,7.09 c0.8,0,1.51,0.32,2.03,0.84c0.52,0.52,0.84,1.24,0.84,2.03c0,0.8-0.32,1.51-0.84,2.03l-0.03,0.03c-0.52,0.5-1.22,0.81-2,0.81 c-0.79,0-1.51-0.32-2.03-0.84l-0.03-0.03c-0.5-0.52-0.81-1.22-0.81-2c0-0.8,0.32-1.51,0.84-2.03l0.03-0.03 C26.48,7.4,27.18,7.09,27.96,7.09L27.96,7.09z M35.9,7.09c0.79,0,1.51,0.32,2.03,0.84c0.52,0.52,0.84,1.24,0.84,2.03 c0,0.79-0.32,1.51-0.84,2.03c-0.52,0.52-1.24,0.84-2.03,0.84c-0.79,0-1.51-0.32-2.03-0.84c-0.52-0.52-0.84-1.24-0.84-2.03 c0-0.8,0.32-1.51,0.84-2.03C34.38,7.41,35.1,7.09,35.9,7.09L35.9,7.09z M43.83,7.09c0.79,0,1.51,0.32,2.03,0.84 c0.52,0.52,0.84,1.24,0.84,2.03c0,0.79-0.32,1.51-0.84,2.03c-0.52,0.52-1.24,0.84-2.03,0.84c-0.79,0-1.51-0.32-2.03-0.84 c-0.52-0.52-0.84-1.24-0.84-2.03c0-0.79,0.32-1.51,0.84-2.03C42.32,7.41,43.04,7.09,43.83,7.09L43.83,7.09z M67.8,102.44H3.99v7.55 c0,1.21,0.24,2.35,0.68,3.4c0.46,1.09,1.12,2.06,1.95,2.87l0,0c0.83,0.83,1.82,1.5,2.9,1.95c1.04,0.44,2.18,0.68,3.37,0.68H58.9 c1.21,0,2.35-0.24,3.4-0.68c1.09-0.46,2.06-1.12,2.87-1.95c0.83-0.83,1.5-1.82,1.96-2.9c0.44-1.04,0.68-2.18,0.68-3.37V102.44 L67.8,102.44z M3.99,16.05H67.8v-3.2c0-1.21-0.24-2.36-0.68-3.4C66.66,8.37,66,7.4,65.17,6.59l0,0c-0.83-0.83-1.81-1.5-2.9-1.95 c-1.04-0.44-2.18-0.68-3.37-0.68H12.89c-1.21,0-2.36,0.24-3.4,0.68C8.41,5.09,7.44,5.76,6.63,6.58l0,0 c-0.83,0.83-1.5,1.81-1.95,2.9c-0.44,1.04-0.68,2.18-0.68,3.37V16.05L3.99,16.05z"/></g></svg>