<?xml version="1.0" encoding="utf-8"?>
<!-- Generator: Adobe Illustrator 22.1.0, SVG Export Plug-In . SVG Version: 6.00 Build 0)  -->
<svg version="1.1" id="Layer_1" xmlns="http://www.w3.org/2000/svg" xmlns:xlink="http://www.w3.org/1999/xlink" x="0px" y="0px"
	 viewBox="0 0 512 512" style="enable-background:new 0 0 512 512;" xml:space="preserve">
<g>
	<title>graphql</title>
	<g>
		<path d="M306.8,82.6l92.5,53.5c15.3-16.1,40.8-16.8,56.9-1.5c2.7,2.6,5.1,5.6,7,8.9c11.1,19.3,4.4,43.9-14.9,54.9
			c-3.2,1.8-6.7,3.3-10.5,4.2v106.9c21.5,5.1,34.8,26.7,29.7,48.2c-0.9,3.8-2.4,7.5-4.3,10.8c-11.1,19.2-35.7,25.8-54.9,14.7
			c-3.7-2.1-7-4.8-9.8-8l-92,53.1c7,21-4.5,43.7-25.5,50.7c-4.1,1.4-8.4,2.1-12.6,2.1c-22.1,0-40.1-17.9-40.1-40.1
			c0-3.8,0.6-7.7,1.7-11.4l-92.6-53.4c-15.3,16-40.7,16.7-56.8,1.3c-16-15.3-16.6-40.7-1.3-56.7c5.3-5.6,12.2-9.5,19.6-11.3V202.5
			c-21.5-5.1-34.9-26.8-29.7-48.4c0.9-3.7,2.3-7.3,4.2-10.6c11.1-19.2,35.7-25.8,54.9-14.7c3.3,1.9,6.4,4.2,9,7l92.6-53.4
			c-6.3-21.2,5.9-43.6,27-49.8c3.7-1.2,7.5-1.7,11.4-1.7c22.1,0,40.1,17.9,40.1,40C308.5,74.9,307.9,78.8,306.8,82.6L306.8,82.6z
			 M297.2,99.1c-0.4,0.4-0.7,0.7-1.1,1.1l121.1,209.8c0.5-0.1,1.1-0.3,1.5-0.4v-107c-21.5-5.3-34.5-27-29.2-48.5
			c0.1-0.4,0.2-1,0.3-1.4L297.2,99.1z M240.6,100.2l-1.1-1.1l-92.7,53.5c6.2,21.2-6.2,43.4-27.4,49.6c-0.5,0.1-1,0.2-1.5,0.4v107
			l1.6,0.4L240.6,100.2L240.6,100.2z M279.6,109.7c-7.3,2.1-15.1,2.1-22.3,0L136.1,319.4c5.5,5.3,9.4,12.1,11.3,19.6h242.1
			c1.8-7.5,5.7-14.3,11.3-19.6L279.6,109.7z M298.1,413.9l92.1-53.2c-0.3-0.9-0.5-1.8-0.7-2.6H147.3l-0.4,1.5l92.7,53.5
			c7.3-7.5,17.5-12.2,28.9-12.2C280.2,400.8,290.7,405.8,298.1,413.9L298.1,413.9z"/>
	</g>
</g>
</svg>
