<svg id="svg8" xmlns="http://www.w3.org/2000/svg" viewBox="0 0 582.86 703.94"><defs><style>.cls-1{fill:#606060;}.cls-2{fill:#342e37;}.cls-3{isolation:isolate;}.cls-4{fill:#067bc2;}</style></defs><g id="layer1"><ellipse id="ellipse4537" class="cls-1" cx="291.43" cy="323.57" rx="291.43" ry="323.57"/><ellipse id="path4520" class="cls-2" cx="291.43" cy="323.57" rx="272.14" ry="304.29"/><g id="text4549" class="cls-3"><g class="cls-3"><path class="cls-4" d="M265.94,434.11q35.85-83.52,74.11-165.22,41.76-87.22,96.64-185.06,4.59-8.31,4.59-12.46c0-3.38-.66-5.08-2-5.08q-1.53,0-7,3.23c-2.18,1.55-3.93,2.31-5.24,2.31q-5.47,0-5.47-8.77,0-10.61,5-15.23,10.5-10.14,41.76-24.46Q500.52,8.61,520.86,8.6q10.5,0,10.49,13.85,0,13.4-9.84,14.3Q490.91,39.07,481.72,58,471,80.14,437.12,201.51q-36.28,132-57.5,226.14-16,70.62-16,92.77,0,16.16,7.66,16.15,2.18,0,18.58-4.15,11.14-2.77,16.83-2.77,8.1,0,8.09,12.92,0,10.62-7,14.31-2.41.93-29.74,8.3-44.16,12.47-78.7,48-5,5.07-7.66,5.08-5.46,0-5.46-8.77,0-12.47,5.68-20.31,9.62-12.91,33-29.07Q343.54,452.58,368,350.58,390.33,262,426,143.83,410.9,169.21,376.34,238,317.75,354.75,258.28,502q-7,17.54-11.58,17.53-10.06,0-10.06-28.61,0-41.07,9.4-153.68,5.69-66.46,15.09-149.07a70.91,70.91,0,0,0,.65-8.77q0-4.61-1.53-4.61t-4.59,7.84Q230.3,245.83,201,338.12q-26.44,83.53-41.32,150-5.46,24.47-5.46,30.46,0,11.53,7.87,11.54a11.51,11.51,0,0,0,3.93-.93q28-8.29,41.54-8.3,9.84,0,9.84,12.92,0,9.69-5.47,12.92-2.18.93-17.27,4.62-24.27,6-40.44,13.84a129.84,129.84,0,0,0-29.74,20.31l-21.86,19.38c-2.62,2.46-4.74,3.69-6.34,3.69q-5.69,0-5.69-11.53a25.75,25.75,0,0,1,3.72-13.85q8.1-12.91,34.33-33.69,36.29-174,123.08-402.9,14.22-36.45,14.22-47.53,0-10.62-5.25-10.62-4.38,0-16.18,7.39-18.36,11.53-21.64,11.54-4.38,0-4.38-13.85,0-9.69,17.06-20.77,36.51-24.45,59-24.46,10.71,0,10.71,18.46,0,6-12.9,94.61-10.71,74.77-19.9,174Q267.26,395.82,265.94,434.11Z" transform="translate(-70.71 -3.66)"/></g></g><g id="text4553" class="cls-3"><g class="cls-3"><path class="cls-4" d="M444.66,460.09q-12.33,45.66-20.54,83.25-12.74,57.74-12.73,71.17,0,11.64,5.54,11.63c3.15,0,9.24-1.18,18.28-3.58a49.56,49.56,0,0,1,14.38-2.23q9,0,9,13,0,11.66-9.45,14.33-36,9.84-52.17,18.8-24.64,13.88-49.09,38.49-2.67,2.69-4.11,2.68-6.57,0-6.57-14.32,0-6.25,4.73-12.08,6.76-8.51,32.45-30.89,38.4-198.72,95.5-371,17.67-51.46,17.67-56.84,0-9-3.91-9-4.11,0-25.47,19.24-2.67,2.68-5.33,2.69-3.92,0-3.91-13.88,0-8.94,19.1-25.06,19.31-17,46-32.23,39.23-22.37,70.45-22.37,29.16,0,44.16,22.37,15.19,22.83,15.2,63.56,0,62.67-34.51,123.53Q552.89,450.69,444.66,460.09ZM532.77,181.7Q517,222.44,491.69,301.2q-24,76.1-39,131.59,52.17-3.57,96.74-51.92a260.56,260.56,0,0,0,48.67-74.3,176.53,176.53,0,0,0,15-71.16q0-64.89-39.44-64.9Q552.7,170.51,532.77,181.7Z" transform="translate(-70.71 -3.66)"/></g></g></g></svg>