<?xml version="1.0" encoding="utf-8"?>
<!-- Generator: Adobe Illustrator 22.1.0, SVG Export Plug-In . SVG Version: 6.00 Build 0)  -->
<svg version="1.1" id="Layer_1" xmlns="http://www.w3.org/2000/svg" xmlns:xlink="http://www.w3.org/1999/xlink" x="0px" y="0px"
	 viewBox="0 0 512 512" style="enable-background:new 0 0 512 512;" xml:space="preserve">
<g>
	<path d="M398.6,186.7c-4.7-1.6-9.5-3.1-14.2-4.5c0.8-3.3,1.5-6.5,2.2-9.8c10.8-52.4,3.7-94.5-20.3-108.4
		c-23.1-13.3-60.8,0.5-99,33.8c-3.8,3.3-7.5,6.7-11,10.1c-2.4-2.3-4.8-4.6-7.3-6.8c-40-35.5-80.1-50.4-104.1-36.5
		c-23,13.4-29.9,53-20.2,102.6c1,4.9,2,9.8,3.3,14.7c-5.6,1.6-11.2,3.3-16.3,5.2C64.7,203.4,31,229.1,31,255.6
		c0,27.4,35.9,54.9,84.6,71.6c4,1.3,7.9,2.6,12,3.8c-1.3,5.3-2.5,10.5-3.5,15.8c-9.2,48.8-2,87.5,21,100.7
		c23.7,13.7,63.6-0.4,102.5-34.4c3.1-2.7,6.2-5.5,9.2-8.5c3.9,3.8,7.9,7.4,12,10.9c37.6,32.3,74.8,45.4,97.7,32.2
		c23.7-13.7,31.5-55.3,21.4-105.9c-0.8-3.9-1.7-7.8-2.6-11.9c2.8-0.8,5.5-1.7,8.3-2.5c50.7-16.8,87.5-43.9,87.5-71.8
		C481,229,446.4,203.2,398.6,186.7L398.6,186.7z M279.6,112.1c32.7-28.5,63.2-39.6,77.1-31.6c14.9,8.5,20.6,43,11.2,88.2
		c-0.6,3-1.2,5.9-2,8.8c-19.5-4.4-39.3-7.6-59.2-9.3c-11.4-16.3-23.9-32-37.4-46.7C272.8,118.3,276.1,115.2,279.6,112.1z M178,301.2
		c4.5,7.6,9.1,15.3,13.9,22.8c-13.7-1.5-27.3-3.7-40.8-6.6c3.9-12.7,8.7-25.8,14.3-39.1C169.4,286,173.6,293.7,178,301.2L178,301.2z
		 M151.3,195.5c12.7-2.8,26.1-5.1,40.1-6.9c-4.7,7.3-9.2,14.8-13.5,22.3c-4.3,7.5-8.5,15.1-12.5,22.9
		C159.8,220.7,155.2,207.9,151.3,195.5L151.3,195.5z M175.4,256.1c5.8-12.1,12.1-24,18.8-35.7c6.7-11.7,13.9-23,21.4-34.2
		c13.2-1,26.6-1.5,40.3-1.5c13.7,0,27.2,0.5,40.3,1.5c7.5,11.1,14.6,22.4,21.4,34c6.8,11.6,13.1,23.5,19.1,35.5
		c-5.9,12.1-12.2,24.1-19,35.9c-6.7,11.7-13.8,23-21.3,34.3c-13.1,1-26.7,1.4-40.5,1.4c-13.8,0-27.2-0.4-40.1-1.2
		c-7.6-11.2-14.9-22.6-21.6-34.3C187.5,280.1,181.3,268.2,175.4,256.1L175.4,256.1z M334.1,301.1c4.5-7.7,8.7-15.6,12.8-23.5
		c5.6,12.7,10.5,25.7,14.9,38.9c-13.6,3.1-27.4,5.4-41.3,7C325.3,316.2,329.7,308.6,334.1,301.1L334.1,301.1z M346.8,233.8
		c-4.1-7.7-8.3-15.5-12.7-23c-4.3-7.5-8.8-14.9-13.4-22.1c14.2,1.8,27.7,4.1,40.3,7C356.9,208.7,352.2,221.3,346.8,233.8z
		 M256.2,135c9.2,10,17.9,20.6,26,31.5c-17.4-0.8-34.9-0.8-52.3,0C238.5,155.1,247.4,144.5,256.2,135z M154.2,81.1
		c14.8-8.6,47.5,3.7,82.1,34.3c2.2,1.9,4.4,4,6.7,6.2c-13.6,14.7-26.2,30.3-37.7,46.7c-19.9,1.8-39.6,4.8-59.1,9.1
		c-1.1-4.5-2.1-9.1-3.1-13.6C134.9,121.2,140.3,89.1,154.2,81.1L154.2,81.1z M132.7,312.8c-3.7-1.1-7.3-2.2-10.9-3.4
		c-18.7-5.9-40-15.2-55.4-27.4c-8.9-6.2-14.9-15.6-16.5-26.3c0-16.1,27.8-36.7,67.9-50.6c5-1.8,10.1-3.3,15.2-4.8
		c6,19.1,13.2,37.8,21.5,55.9C146,274.4,138.8,293.4,132.7,312.8z M235.2,398.9c-14.5,13.3-31.3,23.8-49.6,31
		c-9.8,4.7-21,5.1-31,1.1c-14-8.1-19.8-39.1-11.9-80.9c1-4.9,2-9.8,3.3-14.7c19.7,4.2,39.6,7.1,59.7,8.6
		c11.6,16.4,24.3,32.2,38,46.9C240.8,393.8,238,396.4,235.2,398.9L235.2,398.9z M256.7,377.5c-9-9.7-17.9-20.4-26.6-31.9
		c8.4,0.4,17.1,0.5,25.9,0.5c9.1,0,17.9-0.2,26.7-0.6C274.6,356.7,265.9,367.3,256.7,377.5z M371.6,403.9
		c-0.8,10.7-6.1,20.7-14.5,27.5c-14,8.1-43.8-2.5-75.9-30.1c-3.7-3.2-7.4-6.6-11.2-10.1c13.4-14.9,25.8-30.6,37.1-47.1
		c20.1-1.7,40.2-4.7,59.9-9.2c0.9,3.6,1.7,7.2,2.4,10.7C373.7,364.6,374.4,384.4,371.6,403.9L371.6,403.9z M387.6,309.4
		c-2.5,0.8-4.9,1.6-7.5,2.3c-6.2-19.2-13.7-37.9-22.4-56.1c8.4-17.9,15.6-36.4,21.5-55.3c4.6,1.3,9,2.7,13.2,4.1
		c41,14.1,69.7,35,69.7,51C462.1,272.7,431.4,294.9,387.6,309.4z M256,296.2c22.2,0,40.3-18,40.3-40.3c0-22.2-18-40.3-40.3-40.3
		s-40.3,18-40.3,40.3S233.8,296.2,256,296.2L256,296.2z"/>
</g>
</svg>
