<?xml version="1.0" encoding="utf-8"?>
<!-- Generator: Adobe Illustrator 22.1.0, SVG Export Plug-In . SVG Version: 6.00 Build 0)  -->
<svg version="1.1" id="Layer_1" xmlns="http://www.w3.org/2000/svg" xmlns:xlink="http://www.w3.org/1999/xlink" x="0px" y="0px"
	 viewBox="0 0 32 32" style="enable-background:new 0 0 32 32;" xml:space="preserve">
<title>redux</title>
<path d="M22.2,22c1.2-0.1,2.1-1.1,2-2.3c-0.1-1.2-1.1-2.2-2.3-2.2h-0.1c-1.3,0-2.2,1.1-2.2,2.4c0,0.6,0.3,1.2,0.7,1.5
	c-1.4,2.7-3.5,4.7-6.7,6.4C11.5,28.9,9.2,29.3,7,29c-1.8-0.3-3.3-1.1-4.2-2.4c-1.3-2-1.4-4.2-0.3-6.3c0.8-1.6,2-2.7,2.8-3.3
	c-0.2-0.5-0.4-1.4-0.6-2.1c-5.9,4.2-5.3,10-3.5,12.8c1.3,2,4.1,3.3,7.1,3.3c0.8,0,1.6-0.1,2.5-0.3C16,29.8,19.9,26.6,22.2,22
	L22.2,22z M29.3,17c-3.1-3.6-7.7-5.6-12.8-5.6h-0.7c-0.3-0.7-1.1-1.2-2-1.2h-0.1c-1.3,0-2.2,1.1-2.2,2.3c0,1.2,1.1,2.2,2.3,2.2h0.1
	c0.9,0,1.7-0.6,2-1.4h0.7c3.1,0,6,0.9,8.7,2.7c2,1.3,3.5,3.1,4.3,5.2c0.7,1.7,0.7,3.4-0.1,4.8c-1.1,2.2-3.1,3.4-5.6,3.4
	c-1.6,0-3.2-0.5-4-0.9c-0.5,0.4-1.3,1.1-1.9,1.5c1.8,0.8,3.5,1.3,5.3,1.3c3.9,0,6.8-2.2,7.9-4.3C32.5,24.5,32.4,20.4,29.3,17
	L29.3,17z M8.7,22.7c0,1.2,1.1,2.2,2.3,2.2H11c1.3,0,2.3-1.1,2.2-2.4c0-1.2-1-2.2-2.3-2.2h-0.1c-0.1,0-0.2,0-0.3,0
	c-1.7-2.8-2.4-5.8-2.1-9c0.2-2.4,1-4.6,2.4-6.3c1.2-1.5,3.5-2.2,5-2.3c4.3-0.1,6.1,5.3,6.3,7.4l2,0.6c-0.5-6.6-4.5-10-8.4-10
	c-3.7,0-7,2.7-8.4,6.6c-1.9,5.2-0.6,10.2,1.6,14.2C8.7,21.8,8.6,22.3,8.7,22.7z"/>
</svg>
